<svg width="512" height="512" viewBox="0 0 512 512" fill="none" xmlns="http://www.w3.org/2000/svg">
<path d="M238.345 189.773H485.517C500.143 189.773 512 201.63 512 216.256V375.153C512 389.779 500.143 401.636 485.517 401.636H344.276V430.752C344.276 436.296 337.574 439.072 333.654 435.151L300.138 401.636H238.345C223.719 401.636 211.862 389.779 211.862 375.153V216.256C211.862 201.63 223.719 189.773 238.345 189.773Z" fill="#57B894"/>
<path d="M211.862 216.256V375.153C211.862 377.053 212.08 378.899 212.461 380.687C274.166 355.917 317.793 295.644 317.793 225.084C317.793 212.962 316.44 201.166 313.998 189.774H238.344C223.719 189.773 211.862 201.63 211.862 216.256Z" fill="#41B087"/>
<path d="M300.138 225.083C300.138 142.202 232.95 75.014 150.069 75.014C67.188 75.014 0 142.202 0 225.083C0 297.681 51.555 358.229 120.05 372.137L165.249 417.336C169.42 421.507 176.552 418.553 176.552 412.654V372.676C246.78 360.151 300.138 298.912 300.138 225.083Z" fill="#ABA7E6"/>
<path d="M150.069 339.884C213.449 339.884 264.828 288.505 264.828 225.125C264.828 161.745 213.449 110.366 150.069 110.366C86.6894 110.366 35.31 161.745 35.31 225.125C35.31 288.505 86.6894 339.884 150.069 339.884Z" fill="#6C63FF"/>
<path d="M150.074 304.582C150.071 304.582 150.066 304.583 150.063 304.582C145.188 304.582 141.23 300.625 141.23 295.749C141.23 295.748 141.23 295.746 141.23 295.743C141.23 295.74 141.23 295.74 141.23 295.737C141.23 290.862 145.187 286.904 150.063 286.904C150.065 286.904 150.07 286.903 150.074 286.904C154.949 286.904 158.907 290.861 158.907 295.737C158.907 295.738 158.907 295.739 158.907 295.74C158.907 295.742 158.907 295.744 158.907 295.747C158.908 300.625 154.95 304.582 150.074 304.582Z" fill="white"/>
<path d="M361.931 348.67C359.672 348.67 357.412 347.808 355.689 346.085L311.551 301.947C308.103 298.5 308.103 292.911 311.551 289.464C314.998 286.017 320.587 286.017 324.034 289.464L361.931 327.359L443.965 245.325C447.412 241.878 453.001 241.878 456.448 245.325C459.896 248.772 459.896 254.361 456.448 257.808L368.172 346.084C366.45 347.808 364.19 348.67 361.931 348.67Z" fill="white"/>
<path d="M150.069 269.261C145.194 269.261 141.241 265.308 141.241 260.433V257.796C141.241 246.053 148.872 235.875 160.23 232.469C175.036 228.029 185.378 214.12 185.379 198.643C185.38 189.46 181.638 180.66 174.843 173.865C168.049 167.071 159.251 163.329 150.068 163.329C150.067 163.329 150.067 163.329 150.065 163.329C130.596 163.33 114.757 179.17 114.757 198.639C114.757 203.514 110.804 207.467 105.929 207.467C101.054 207.467 97.101 203.514 97.101 198.639C97.101 169.436 120.859 145.676 150.063 145.673C150.063 145.673 150.066 145.673 150.067 145.673C163.965 145.673 177.195 151.251 187.325 161.379C197.455 171.509 203.033 184.742 203.031 198.641C203.029 221.852 187.513 242.715 165.299 249.376C161.468 250.525 158.893 253.907 158.893 257.792V260.429C158.897 265.31 154.944 269.261 150.069 269.261Z" fill="white"/>
</svg>
